<svg xmlns="http://www.w3.org/2000/svg" viewBox="0 0 640 320"><defs><linearGradient id="n" y2="1"><stop stop-color="#101944"/><stop offset=".6" stop-color="#712c90"/><stop offset="1" stop-color="#f46b9b"/></linearGradient><filter id="g"><feGaussianBlur stdDeviation="9"/></filter></defs><rect width="640" height="320" fill="url(#n)"/><circle cx="510" cy="72" r="74" fill="#f5a9df" opacity=".22" filter="url(#g)"/><path d="M0 244h640v76H0z" fill="#0a1022"/><g fill="#101a36" stroke="#9c7cfa" stroke-opacity=".62"><path d="M27 173h72v71H27zM114 122h87v122h-87zM216 155h65v89h-65zM297 90h91v154h-91zM404 143h77v101h-77zM494 105h108v139H494z"/></g><g fill="#76d9ff"><path d="M143 147h9v13h-9zM171 147h9v13h-9zM143 177h9v13h-9zM171 177h9v13h-9zM326 114h11v17h-11zM354 114h11v17h-11zM326 148h11v17h-11zM354 148h11v17h-11zM526 130h12v18h-12zM557 130h12v18h-12zM526 167h12v18h-12zM557 167h12v18h-12z"/></g><path d="M0 272h640" stroke="#e6b6ff" stroke-opacity=".4"/><path d="M192 292h240" stroke="#36bbff" stroke-width="3" opacity=".7"/><path d="M250 287q35-70 73-73 39 3 69 73" fill="#080e1c" stroke="#ed76ff" stroke-width="2"/><circle cx="322" cy="277" r="14" fill="#fff1ce"/><circle cx="322" cy="277" r="36" fill="#bb59ff" opacity=".3" filter="url(#g)"/></svg>
